<svg width="17" height="16" viewBox="0 0 17 16" fill="none" xmlns="http://www.w3.org/2000/svg">
<path fill-rule="evenodd" clip-rule="evenodd" d="M16.4768 0V1.99795L13.2613 1.99781C14.9507 3.48033 15.9861 5.64995 15.9842 8.01396C15.9811 11.6749 13.491 14.8657 9.94047 15.7581C6.38999 16.6506 2.68704 15.0165 0.95329 11.7921C-0.780414 8.56775 -0.101599 4.57755 2.60083 2.10786C2.98263 2.71533 3.52095 3.20879 4.15926 3.53643C3.48139 4.08407 2.93481 4.77661 2.55967 5.56318C2.18453 6.34975 1.99035 7.21037 1.99141 8.08181C2.04058 11.357 4.70981 13.9862 7.98537 13.9859C10.9857 14.0353 13.5443 11.8226 13.9281 8.84656C14.2149 6.62304 13.2193 4.50375 11.482 3.27654L11.4819 6.99293H9.48385V0H16.4768Z" fill="#040A17"/>
</svg>
