<svg width="11" height="12" viewBox="0 0 11 12" fill="none" xmlns="http://www.w3.org/2000/svg">
<path d="M10.0708 4.00105H8.35676V2.97833C8.35676 1.4871 7.26548 0.155845 5.77996 0.0130064C4.07733 -0.146973 2.64323 1.18999 2.64323 2.85835V4.00105H0.929169V12H10.0708V4.00105ZM5.5 9.14323C4.87151 9.14323 4.35729 8.62901 4.35729 8.00053C4.35729 7.37204 4.87151 6.85782 5.5 6.85782C6.12848 6.85782 6.6427 7.37204 6.6427 8.00053C6.6427 8.62901 6.12848 9.14323 5.5 9.14323ZM3.78594 4.00105V2.85835C3.78594 1.9099 4.55155 1.14429 5.5 1.14429C6.44844 1.14429 7.21406 1.9099 7.21406 2.85835V4.00105H3.78594Z" fill="#040A17"/>
</svg>
