<svg width="25" height="25" viewBox="0 0 25 25" fill="none" xmlns="http://www.w3.org/2000/svg">
<path d="M20.2619 2.76326C18.1001 1.03361 15.4136 0.0918953 12.6451 0.0932632C9.38151 0.0932632 6.33329 1.35058 4.05436 3.6338C1.85204 5.84308 0.645078 8.76005 0.65472 11.8452C0.654795 14.1072 1.31886 16.3193 2.56454 18.2074L2.57472 18.2218C2.58972 18.2438 2.60526 18.2658 2.62079 18.2872C2.63633 18.3086 2.65561 18.3365 2.6599 18.3434L2.67169 18.3649C2.73222 18.472 2.77883 18.6027 2.73758 18.7345L1.75079 22.3056C1.71123 22.4384 1.68961 22.5758 1.68651 22.7143C1.68579 23.0787 1.82959 23.4285 2.08638 23.687C2.34316 23.9454 2.69197 24.0916 3.05633 24.0933C3.24887 24.0869 3.43862 24.0454 3.61615 23.9706L7.23169 22.6656L7.27722 22.6479C7.37557 22.6066 7.48127 22.5857 7.58794 22.5863C7.68629 22.5865 7.78377 22.6047 7.87561 22.6399C7.9624 22.6736 8.75044 22.9752 9.58186 23.2077C10.2729 23.4006 11.7108 23.6899 12.8374 23.6899C16.0329 23.6899 19.0169 22.4524 21.239 20.2045C23.4419 17.9738 24.6547 15.0086 24.6547 11.8517C24.655 11.0413 24.5692 10.2332 24.3987 9.44094C23.8447 6.8363 22.3758 4.46416 20.2619 2.76326ZM7.51186 13.8075C7.17281 13.8075 6.84137 13.707 6.55946 13.5186C6.27754 13.3303 6.05782 13.0625 5.92807 12.7493C5.79832 12.436 5.76437 12.0914 5.83052 11.7588C5.89666 11.4263 6.05993 11.1208 6.29968 10.8811C6.53943 10.6413 6.84488 10.4781 7.17742 10.4119C7.50996 10.3458 7.85465 10.3797 8.16789 10.5095C8.48114 10.6392 8.74887 10.8589 8.93724 11.1409C9.12561 11.4228 9.22615 11.7542 9.22615 12.0933C9.22615 12.5479 9.04554 12.984 8.72405 13.3054C8.40256 13.6269 7.96652 13.8075 7.51186 13.8075ZM12.6547 13.8075C12.3157 13.8075 11.9842 13.707 11.7023 13.5186C11.4204 13.3303 11.2007 13.0625 11.0709 12.7493C10.9412 12.436 10.9072 12.0914 10.9734 11.7588C11.0395 11.4263 11.2028 11.1208 11.4425 10.8811C11.6823 10.6413 11.9877 10.4781 12.3203 10.4119C12.6528 10.3458 12.9975 10.3797 13.3108 10.5095C13.624 10.6392 13.8917 10.8589 14.0801 11.1409C14.2685 11.4228 14.369 11.7542 14.369 12.0933C14.369 12.5479 14.1884 12.984 13.8669 13.3054C13.5454 13.6269 13.1094 13.8075 12.6547 13.8075ZM17.7976 13.8075C17.4585 13.8075 17.1271 13.707 16.8452 13.5186C16.5633 13.3303 16.3435 13.0625 16.2138 12.7493C16.084 12.436 16.0501 12.0914 16.1162 11.7588C16.1824 11.4263 16.3456 11.1208 16.5854 10.8811C16.8251 10.6413 17.1306 10.4781 17.4631 10.4119C17.7957 10.3458 18.1404 10.3797 18.4536 10.5095C18.7669 10.6392 19.0346 10.8589 19.223 11.1409C19.4113 11.4228 19.5119 11.7542 19.5119 12.0933C19.5119 12.5479 19.3313 12.984 19.0098 13.3054C18.6883 13.6269 18.2522 13.8075 17.7976 13.8075Z" fill="white"/>
</svg>
