<svg width="74" height="48" viewBox="0 0 74 48" fill="none" xmlns="http://www.w3.org/2000/svg">
<path d="M0.749699 42.3455C0.749699 41.9543 0.795024 41.6063 0.884449 41.3039C0.975099 41.0015 1.0927 40.7375 1.24092 40.5107C1.38792 40.2851 1.56065 40.0967 1.7591 39.9455C1.95755 39.7919 2.16212 39.6683 2.37405 39.5735C2.58597 39.4787 2.80157 39.4103 3.02085 39.3695C3.24012 39.3263 3.44592 39.3071 3.6407 39.3071C4.04127 39.3071 4.38917 39.3635 4.6844 39.4787C4.97962 39.5939 5.24422 39.7619 5.47942 39.9827H5.50025V37.1147H6.5709V45.0911H5.7624L5.54067 44.4623H5.51372C5.43042 44.5535 5.33242 44.6459 5.2234 44.7383C5.11192 44.8307 4.98207 44.9159 4.83262 44.9915C4.68317 45.0647 4.51045 45.1259 4.31445 45.1715C4.11845 45.2159 3.8906 45.2399 3.63335 45.2399C3.2732 45.2399 2.9204 45.1871 2.57495 45.0827C2.2295 44.9759 1.9208 44.8091 1.6513 44.5787C1.3818 44.3459 1.16375 44.0483 0.997149 43.6823C0.831774 43.3163 0.748474 42.8699 0.748474 42.3443L0.749699 42.3455ZM1.87057 42.3335C1.87057 42.6575 1.91345 42.9515 1.99797 43.2119C2.08372 43.4771 2.20745 43.6991 2.36792 43.8827C2.52962 44.0663 2.72807 44.2079 2.96205 44.3087C3.19725 44.4047 3.46675 44.4575 3.77177 44.4575C3.99717 44.4575 4.20175 44.4311 4.38672 44.3795C4.57047 44.3291 4.73585 44.2631 4.88162 44.1839C5.0274 44.1059 5.15112 44.0219 5.25525 43.9319C5.35937 43.8419 5.44022 43.7603 5.50025 43.6847V40.7375C5.27852 40.5431 5.02372 40.3883 4.73217 40.2719C4.44185 40.1555 4.12825 40.0955 3.7926 40.0955C3.58925 40.0955 3.3761 40.1291 3.15315 40.1939C2.92897 40.2587 2.72195 40.3763 2.53085 40.5455C2.33975 40.7159 2.18172 40.9439 2.058 41.2307C1.93305 41.5187 1.8718 41.8859 1.8718 42.3323L1.87057 42.3335Z" fill="white"/>
<path d="M11.8531 44.4695H11.8249C11.7367 44.5643 11.6265 44.6579 11.4929 44.7491C11.3594 44.8439 11.2051 44.9279 11.0299 44.9999C10.8547 45.0731 10.6636 45.1307 10.4554 45.1751C10.2471 45.2183 10.0266 45.2411 9.79141 45.2411C9.47413 45.2411 9.18258 45.2003 8.91676 45.1187C8.65216 45.0383 8.42431 44.9195 8.23321 44.7647C8.04088 44.6075 7.89266 44.4167 7.78608 44.1923C7.67951 43.9655 7.62683 43.7111 7.62683 43.4255C7.62683 43.1399 7.68563 42.8939 7.80201 42.6719C7.92083 42.4499 8.08498 42.2627 8.29691 42.1079C8.50883 41.9543 8.76363 41.8343 9.06131 41.7515C9.35898 41.6675 9.68728 41.6267 10.0474 41.6267C10.3892 41.6303 10.7053 41.6567 10.9944 41.7035C11.2847 41.7503 11.5419 41.8115 11.7686 41.8823H11.7967V41.4899C11.7967 41.3351 11.7857 41.1995 11.7624 41.0819C11.7392 40.9631 11.7 40.8563 11.6448 40.7663C11.5248 40.5755 11.3337 40.4195 11.0715 40.2935C10.8094 40.1711 10.4541 40.1075 10.007 40.1075C9.67503 40.1075 9.36266 40.1339 9.06988 40.1879C8.77711 40.2407 8.48556 40.3151 8.19401 40.4111V39.6395C8.30548 39.5915 8.43533 39.5471 8.58478 39.5051C8.73423 39.4631 8.89226 39.4271 9.05886 39.3983C9.22546 39.3695 9.40063 39.3467 9.58438 39.3311C9.76936 39.3131 9.95311 39.3071 10.1381 39.3071C10.802 39.3071 11.3447 39.4067 11.7661 39.6083C12.1875 39.8111 12.4913 40.0763 12.6751 40.4099C12.7437 40.5371 12.7939 40.6751 12.8233 40.8287C12.8527 40.9811 12.8686 41.1479 12.8686 41.3291V45.0899H11.9695L11.8519 44.4683L11.8531 44.4695ZM11.798 42.6179C11.6007 42.5699 11.3668 42.5255 11.096 42.4811C10.8253 42.4379 10.5276 42.4139 10.2006 42.4115C9.74731 42.4115 9.39083 42.4955 9.13358 42.6599C8.87633 42.8255 8.74771 43.0823 8.74771 43.4255C8.74771 43.6019 8.78078 43.7519 8.84448 43.8815C8.90941 44.0135 8.99761 44.1215 9.10908 44.2055C9.22178 44.2907 9.35408 44.3531 9.50843 44.3951C9.66278 44.4371 9.82571 44.4587 9.99966 44.4587C10.2287 44.4587 10.4431 44.4299 10.6403 44.3723C10.8376 44.3147 11.0127 44.2475 11.1671 44.1671C11.3214 44.0891 11.4525 44.0087 11.5591 43.9283C11.6669 43.8515 11.7465 43.7891 11.7967 43.7459V42.6167L11.798 42.6179Z" fill="white"/>
<path d="M19.1835 39.3081C19.502 39.3081 19.8058 39.3357 20.0961 39.3945C20.3864 39.4497 20.6363 39.5313 20.8433 39.6333V40.3989C20.553 40.3053 20.286 40.2333 20.0422 40.1853C19.7984 40.1385 19.5485 40.1145 19.2949 40.1145C19.0279 40.1145 18.7621 40.1541 18.4987 40.2285C18.2365 40.3029 18.0013 40.4265 17.7931 40.5981C17.5861 40.7697 17.4182 40.9965 17.2921 41.2809C17.1647 41.5629 17.1022 41.9157 17.1022 42.3345C17.1022 42.6381 17.15 42.9201 17.2443 43.1769C17.3398 43.4325 17.4795 43.6569 17.6657 43.8429C17.8531 44.0301 18.0871 44.1777 18.3676 44.2821C18.6494 44.3877 18.974 44.4393 19.3427 44.4393C19.6098 44.4393 19.8793 44.4141 20.1512 44.3661C20.4232 44.3169 20.6878 44.2473 20.9462 44.1549V44.9193C20.8678 44.9601 20.7649 44.9985 20.6375 45.0393C20.5114 45.0789 20.3717 45.1113 20.2186 45.1425C20.0667 45.1725 19.905 45.1965 19.7347 45.2145C19.5644 45.2313 19.3942 45.2409 19.2239 45.2409C18.7804 45.2409 18.3627 45.1833 17.9695 45.0693C17.5738 44.9541 17.2308 44.7789 16.9356 44.5413C16.6404 44.3025 16.4076 44.0025 16.2373 43.6389C16.0671 43.2753 15.9813 42.8445 15.9813 42.3453C15.9813 41.9733 16.0266 41.6385 16.1161 41.3421C16.2067 41.0457 16.3292 40.7853 16.486 40.5597C16.6428 40.3341 16.8266 40.1433 17.036 39.9837C17.2443 39.8265 17.4697 39.6957 17.7061 39.5949C17.9438 39.4953 18.1888 39.4209 18.4423 39.3753C18.6959 39.3297 18.9421 39.3081 19.1822 39.3081H19.1835Z" fill="white"/>
<path d="M27.7205 42.2793C27.7205 42.7221 27.647 43.1265 27.4988 43.4901C27.3518 43.8537 27.1423 44.1657 26.8728 44.4249C26.6033 44.6829 26.2762 44.8833 25.894 45.0261C25.5106 45.1677 25.0831 45.2397 24.6078 45.2397C24.1325 45.2397 23.6817 45.1677 23.2982 45.0261C22.9124 44.8833 22.5853 44.6829 22.3158 44.4249C22.0463 44.1657 21.8393 43.8537 21.6972 43.4901C21.5538 43.1265 21.4828 42.7221 21.4828 42.2793C21.4828 41.8365 21.5563 41.4285 21.7045 41.0625C21.8515 40.7001 22.061 40.3893 22.3293 40.1265C22.6 39.8661 22.9271 39.6645 23.3117 39.5205C23.6964 39.3777 24.1263 39.3081 24.6004 39.3081C25.0745 39.3081 25.5216 39.3777 25.9075 39.5205C26.2946 39.6633 26.6217 39.8649 26.8887 40.1265C27.1558 40.3881 27.3616 40.7001 27.5049 41.0625C27.6482 41.4285 27.7193 41.8329 27.7193 42.2793H27.7205ZM26.6008 42.2793C26.6008 41.9325 26.5506 41.6217 26.4526 41.3517C26.3534 41.0793 26.215 40.8501 26.0373 40.6629C25.8597 40.4745 25.649 40.3341 25.404 40.2357C25.1602 40.1385 24.892 40.0893 24.6016 40.0893C24.3113 40.0893 24.0443 40.1373 23.8005 40.2357C23.5555 40.3329 23.3448 40.4733 23.1672 40.6629C22.9895 40.8501 22.8523 41.0793 22.7519 41.3517C22.6527 41.6217 22.6037 41.9325 22.6037 42.2793C22.6037 42.6261 22.6539 42.9309 22.7519 43.2021C22.8511 43.4721 22.9908 43.7013 23.1696 43.8873C23.3497 44.0733 23.5616 44.2137 23.8066 44.3097C24.0504 44.4069 24.3187 44.4573 24.6078 44.4573C24.8969 44.4573 25.1639 44.4081 25.4065 44.3097C25.649 44.2137 25.8585 44.0733 26.0361 43.8873C26.2137 43.7013 26.3522 43.4721 26.4514 43.2021C26.5506 42.9309 26.5996 42.6237 26.5996 42.2793H26.6008Z" fill="white"/>
<path d="M29.7442 40.2393H29.7638C29.8839 40.1085 30.0162 39.9873 30.162 39.8745C30.3077 39.7617 30.4694 39.6633 30.6483 39.5781C30.8284 39.4929 31.0256 39.4257 31.24 39.3777C31.4543 39.3321 31.6883 39.3081 31.9419 39.3081C32.242 39.3081 32.5225 39.3429 32.7859 39.4149C33.0481 39.4869 33.2771 39.5997 33.4707 39.7593C33.6642 39.9165 33.8174 40.1229 33.9301 40.3785C34.0428 40.6329 34.0991 40.9473 34.0991 41.3193V45.0909H33.0272V41.4669C33.0272 40.9809 32.917 40.6293 32.6989 40.4157C32.4797 40.2033 32.1612 40.0953 31.741 40.0953C31.3723 40.0953 31.0146 40.1841 30.6691 40.3605C30.3237 40.5369 30.026 40.7781 29.7773 41.0865V45.0921H28.7054V39.4569H29.536L29.743 40.2393H29.7442Z" fill="white"/>
<path d="M36.2342 40.9586C36.2342 41.1122 36.2722 41.2382 36.3482 41.3378C36.4253 41.4374 36.5282 41.5166 36.6569 41.579C36.7855 41.6402 36.9337 41.6918 37.1028 41.7302C37.2718 41.7698 37.4458 41.8046 37.6271 41.8346C37.8745 41.8838 38.1097 41.9342 38.3302 41.993C38.5507 42.0494 38.7553 42.137 38.9427 42.251C39.1289 42.3662 39.2796 42.521 39.3947 42.7166C39.5099 42.911 39.5675 43.1666 39.5675 43.4774C39.5675 43.7618 39.5025 44.015 39.3739 44.2346C39.2453 44.4542 39.0628 44.6378 38.8288 44.7866C38.5936 44.9342 38.3118 45.0482 37.9848 45.125C37.6565 45.2018 37.2975 45.2402 36.9055 45.2402C36.6654 45.2402 36.4474 45.2306 36.2514 45.209C36.0554 45.1862 35.8827 45.1586 35.7332 45.125C35.5838 45.0914 35.4551 45.0554 35.3498 45.0206C35.2432 44.9834 35.1562 44.9522 35.0876 44.9186V44.147C35.3596 44.2418 35.6279 44.3174 35.8949 44.3738C36.162 44.4302 36.456 44.4578 36.7769 44.4578C37.0305 44.4578 37.2596 44.4374 37.4629 44.3978C37.6663 44.3582 37.8427 44.2982 37.9897 44.2214C38.1367 44.1458 38.2506 44.0474 38.329 43.931C38.4086 43.8146 38.4478 43.679 38.4478 43.5242C38.4478 43.3694 38.4123 43.2362 38.3388 43.133C38.2665 43.0286 38.1697 42.9446 38.0472 42.8774C37.9235 42.8102 37.7839 42.7562 37.6222 42.7118C37.4617 42.6674 37.2926 42.6278 37.1162 42.5942C36.8859 42.5498 36.6507 42.4994 36.4131 42.4394C36.1754 42.3782 35.9586 42.2966 35.7651 42.1898C35.5703 42.0818 35.4135 41.9378 35.2934 41.7542C35.1734 41.5694 35.1146 41.333 35.1146 41.045C35.1146 40.757 35.1771 40.4906 35.3008 40.2734C35.4257 40.055 35.5948 39.875 35.8055 39.7334C36.0174 39.5906 36.2649 39.485 36.5454 39.413C36.8259 39.3422 37.1236 39.3062 37.4372 39.3062C37.801 39.3062 38.1379 39.335 38.4503 39.395C38.7614 39.455 39.0444 39.5294 39.2967 39.6206V40.403C39.026 40.313 38.7528 40.2374 38.476 40.1798C38.2004 40.1222 37.9149 40.091 37.6222 40.0886C37.3747 40.0886 37.164 40.1102 36.9876 40.1534C36.8124 40.1978 36.6679 40.2578 36.5564 40.3346C36.4437 40.4114 36.3616 40.5026 36.3102 40.607C36.2587 40.7138 36.233 40.829 36.233 40.955L36.2342 40.9586Z" fill="white"/>
<path d="M43.9493 45.1045C43.8574 45.1357 43.7166 45.1657 43.5267 45.1933C43.3368 45.2209 43.1127 45.2377 42.8493 45.2413C42.5038 45.2413 42.2037 45.2041 41.9513 45.1309C41.6978 45.0577 41.4858 44.9533 41.3192 44.8165C41.1502 44.6809 41.024 44.5153 40.942 44.3197C40.8587 44.1277 40.817 43.9105 40.817 43.6741V40.2457H39.5516V39.4561H40.817V37.9141H41.8889V39.4561H43.8526V40.2457H41.8889V43.5313C41.8889 43.6633 41.9109 43.7833 41.955 43.8949C41.9979 44.0053 42.0677 44.1013 42.162 44.1817C42.2564 44.2621 42.3776 44.3245 42.5259 44.3713C42.6729 44.4157 42.8505 44.4385 43.0587 44.4385C43.2021 44.4385 43.3527 44.4301 43.5108 44.4097C43.6688 44.3893 43.8158 44.3653 43.9493 44.3341V45.1045Z" fill="white"/>
<path d="M48.2968 40.2048H48.2147C47.9612 40.2048 47.7125 40.2252 47.4675 40.2636C47.2237 40.3044 46.9946 40.3632 46.779 40.4448C46.5647 40.5264 46.3711 40.626 46.1996 40.7448C46.0257 40.8648 45.8823 41.0028 45.7672 41.166V45.0936H44.6953V39.4584H45.5259L45.7329 40.3536H45.7537C45.8603 40.2084 45.9901 40.0716 46.1445 39.9432C46.2988 39.8172 46.4728 39.7068 46.6663 39.6108C46.8599 39.516 47.073 39.4428 47.3033 39.3876C47.5336 39.336 47.7762 39.3096 48.0298 39.3096C48.0763 39.3096 48.1241 39.3096 48.1706 39.312C48.2196 39.312 48.2625 39.3156 48.2993 39.3204V40.2048H48.2968Z" fill="white"/>
<path d="M51.336 45.2412C50.9943 45.2412 50.688 45.21 50.4161 45.1464C50.1441 45.0828 49.9052 44.994 49.7007 44.8788C49.4949 44.7648 49.3209 44.6268 49.1788 44.4672C49.0355 44.3052 48.9228 44.13 48.8395 43.9404C48.7746 43.7988 48.7292 43.6428 48.7011 43.4736C48.6741 43.302 48.6606 43.1172 48.6606 42.9156V39.456H49.7325V42.9084C49.7325 43.2204 49.7803 43.4808 49.8783 43.6908C49.9885 43.9272 50.1674 44.1144 50.4136 44.25C50.6598 44.388 50.9747 44.4564 51.3581 44.4564C51.7623 44.4564 52.0882 44.3808 52.3356 44.2308C52.5831 44.0796 52.7595 43.878 52.8648 43.6236C52.9432 43.4304 52.9837 43.1904 52.9837 42.906V39.4536H54.0555V42.918C54.0555 43.1088 54.0421 43.2852 54.0163 43.4484C53.9918 43.6128 53.9514 43.7652 53.8963 43.902C53.813 44.0964 53.6991 44.2764 53.5533 44.4408C53.4087 44.604 53.2299 44.7456 53.0167 44.8632C52.8048 44.982 52.5586 45.0756 52.2805 45.1392C52.0012 45.2064 51.6876 45.2376 51.336 45.2376V45.2412Z" fill="white"/>
<path d="M57.5088 45.1869C57.1487 45.1365 56.8143 45.0405 56.5019 44.8977C56.1907 44.7549 55.9225 44.5641 55.6971 44.3289C55.4704 44.0949 55.2928 43.8117 55.1642 43.4841C55.0356 43.1565 54.9706 42.7761 54.9706 42.3453C54.9706 41.9733 55.016 41.6385 55.1054 41.3421C55.1948 41.0457 55.3185 40.7853 55.4741 40.5597C55.6309 40.3341 55.8147 40.1433 56.0241 39.9837C56.2336 39.8265 56.4566 39.6957 56.6954 39.5949C56.9319 39.4953 57.1781 39.4209 57.4304 39.3753C57.6828 39.3297 57.9302 39.3081 58.1703 39.3081C58.4888 39.3081 58.7914 39.3357 59.0805 39.3945C59.3684 39.4497 59.6183 39.5313 59.8314 39.6333V40.3989C59.5362 40.3053 59.2667 40.2333 59.0229 40.1853C58.7779 40.1385 58.5317 40.1145 58.2818 40.1145C58.005 40.1145 57.7379 40.1541 57.4807 40.2285C57.2222 40.3029 56.9907 40.4265 56.7824 40.5981C56.5754 40.7697 56.4088 40.9989 56.2814 41.2857C56.154 41.5737 56.0915 41.9229 56.0915 42.3345C56.0915 42.6381 56.1405 42.9201 56.241 43.1769C56.3402 43.4325 56.4884 43.6569 56.6869 43.8429C56.8829 44.0301 57.1291 44.1777 57.4268 44.2821C57.7232 44.3877 58.0662 44.4393 58.4545 44.4393C58.7314 44.4393 59.0131 44.4141 59.2998 44.3661C59.5852 44.3169 59.8584 44.2473 60.1169 44.1549V44.9193C60.0421 44.9601 59.9478 44.9973 59.8327 45.0357C59.7175 45.0741 59.5864 45.1053 59.4394 45.1329C59.2924 45.1605 59.1356 45.1845 58.969 45.2049C58.8 45.2229 58.6322 45.2361 58.4619 45.2397L58.2585 45.8373C58.4521 45.8613 58.6309 45.8997 58.7939 45.9477C58.9568 45.9981 59.0952 46.0617 59.2128 46.1421C59.3292 46.2201 59.4186 46.3173 59.4823 46.4313C59.546 46.5429 59.5766 46.6725 59.5766 46.8189C59.5766 47.0241 59.5142 47.2005 59.3868 47.3493C59.2618 47.4993 59.0915 47.6205 58.8808 47.7165C58.6689 47.8137 58.4447 47.8845 58.2083 47.9313C57.9731 47.9757 57.7306 47.9985 57.4807 47.9985C57.2822 47.9985 57.1034 47.9865 56.9453 47.9661C56.7861 47.9433 56.6587 47.9181 56.5619 47.8845V47.2161C56.617 47.2317 56.6807 47.2437 56.7518 47.2581C56.8241 47.2677 56.8976 47.2797 56.9735 47.2893C57.0495 47.3013 57.123 47.3073 57.194 47.3097C57.2663 47.3145 57.3288 47.3145 57.3851 47.3145C57.5186 47.3145 57.6485 47.3097 57.7759 47.2953C57.9021 47.2797 58.016 47.2557 58.1177 47.2185C58.2193 47.1813 58.3014 47.1309 58.3639 47.0709C58.4264 47.0085 58.457 46.9305 58.457 46.8357C58.457 46.7541 58.4251 46.6833 58.3602 46.6257C58.2953 46.5681 58.2046 46.5237 58.087 46.4865C57.9694 46.4529 57.8261 46.4253 57.6571 46.4097C57.4892 46.3893 57.3018 46.3773 57.0936 46.3689L57.5088 45.1869Z" fill="white"/>
<path d="M64.6971 44.4698H64.6702C64.582 44.5646 64.4717 44.6582 64.3382 44.7494C64.2047 44.8442 64.0503 44.9282 63.8739 45.0002C63.6988 45.0734 63.5077 45.131 63.3006 45.1754C63.0936 45.2186 62.8719 45.2414 62.6367 45.2414C62.3194 45.2414 62.0266 45.2006 61.762 45.119C61.4974 45.0386 61.2684 44.9198 61.0785 44.765C60.8862 44.6078 60.7379 44.417 60.6314 44.1926C60.5248 43.9658 60.4721 43.7114 60.4721 43.4258C60.4721 43.1402 60.5309 42.8942 60.6485 42.6722C60.7661 42.4502 60.9315 42.263 61.1434 42.1082C61.3553 41.9546 61.6101 41.8346 61.9066 41.7518C62.2043 41.6678 62.5326 41.627 62.8927 41.627C63.2333 41.6306 63.5493 41.657 63.8396 41.7038C64.1312 41.7506 64.3884 41.8118 64.6138 41.8826H64.642V41.4902C64.642 41.3354 64.631 41.1998 64.6077 41.0822C64.5844 40.9634 64.5452 40.8566 64.4889 40.7666C64.3688 40.5758 64.179 40.4198 63.9156 40.2938C63.6522 40.1714 63.2982 40.1078 62.8498 40.1078C62.5179 40.1078 62.2055 40.1342 61.9127 40.1882C61.6199 40.241 61.3284 40.3154 61.0381 40.4114V39.6398C61.1483 39.5918 61.2794 39.5474 61.4288 39.5054C61.5795 39.4634 61.7375 39.4274 61.9029 39.3986C62.0695 39.3698 62.2447 39.347 62.4284 39.3314C62.6122 39.3134 62.7972 39.3074 62.9821 39.3074C63.6449 39.3074 64.1888 39.407 64.6102 39.6086C65.0316 39.8114 65.3354 40.0766 65.5191 40.4102C65.5889 40.5374 65.6379 40.6754 65.6673 40.829C65.698 40.9814 65.7127 41.1482 65.7127 41.3294V45.0902H64.8147L64.6959 44.4686L64.6971 44.4698ZM61.0185 38.3294V38.1926C61.0185 38.0582 61.0356 37.9238 61.0699 37.7906C61.1042 37.6586 61.1667 37.5386 61.2573 37.4294C61.3468 37.3214 61.468 37.2326 61.6212 37.169C61.7743 37.103 61.9605 37.0718 62.181 37.0718C62.3696 37.0718 62.5546 37.0994 62.7347 37.1582C62.9148 37.2146 63.0801 37.2794 63.232 37.3502C63.3839 37.421 63.5334 37.4858 63.6792 37.547C63.8237 37.6058 63.9523 37.637 64.0638 37.637C64.2059 37.637 64.3113 37.5926 64.3774 37.5038C64.4436 37.4186 64.4779 37.2902 64.4779 37.1186H65.3219V37.2554C65.3219 37.3898 65.3047 37.5242 65.2704 37.6562C65.2361 37.7894 65.1737 37.9094 65.0842 38.0186C64.9948 38.1278 64.8735 38.2154 64.7216 38.279C64.5697 38.3462 64.3823 38.3762 64.1618 38.3762C63.9732 38.3762 63.7894 38.3486 63.6093 38.291C63.4293 38.2322 63.2639 38.1686 63.1108 38.0978C62.9589 38.027 62.8106 37.961 62.6649 37.9022C62.5191 37.8422 62.3917 37.8122 62.2802 37.8122C62.1381 37.8122 62.0328 37.8566 61.9654 37.943C61.8992 38.0306 61.8649 38.1602 61.8649 38.3294H61.0209H61.0185ZM64.642 42.6182C64.4448 42.5702 64.2108 42.5258 63.9401 42.4814C63.6681 42.4382 63.3705 42.4142 63.0446 42.4118C62.5901 42.4118 62.2349 42.4958 61.9776 42.6602C61.7204 42.8258 61.5918 43.0826 61.5918 43.4258C61.5918 43.6022 61.6236 43.7522 61.6885 43.8818C61.7522 44.0138 61.8404 44.1218 61.9531 44.2058C62.0658 44.291 62.1994 44.3534 62.3525 44.3954C62.5068 44.4374 62.6698 44.459 62.8449 44.459C63.074 44.459 63.2872 44.4302 63.4844 44.3726C63.6816 44.315 63.858 44.2478 64.0124 44.1674C64.1655 44.0894 64.2966 44.009 64.4044 43.9286C64.5109 43.8518 64.5906 43.7894 64.642 43.7462V42.617V42.6182Z" fill="white"/>
<path d="M72.9377 42.2793C72.9377 42.7221 72.863 43.1265 72.716 43.4901C72.569 43.8537 72.3607 44.1657 72.09 44.4249C71.8205 44.6829 71.4934 44.8833 71.1112 45.0261C70.7278 45.1677 70.2991 45.2397 69.825 45.2397C69.3509 45.2397 68.8989 45.1677 68.5155 45.0261C68.1296 44.8833 67.8025 44.6829 67.533 44.4249C67.2635 44.1657 67.0565 43.8537 66.9144 43.4901C66.7711 43.1265 66.7 42.7221 66.7 42.2793C66.7 41.8365 66.7735 41.4285 66.9217 41.0625C67.0687 40.7001 67.277 40.3893 67.5465 40.1265C67.8172 39.8661 68.1443 39.6645 68.5289 39.5205C68.9136 39.3777 69.3436 39.3081 69.8189 39.3081C70.2942 39.3081 70.7376 39.3777 71.1259 39.5205C71.513 39.6633 71.8401 39.8649 72.1072 40.1265C72.3742 40.3881 72.5788 40.7001 72.7221 41.0625C72.8654 41.4285 72.9377 41.8329 72.9377 42.2793ZM71.8168 42.2793C71.8168 41.9325 71.7678 41.6217 71.6674 41.3517C71.5694 41.0793 71.4297 40.8501 71.2533 40.6629C71.0757 40.4745 70.8638 40.3341 70.62 40.2357C70.3762 40.1385 70.1092 40.0893 69.8189 40.0893C69.5285 40.0893 69.2603 40.1373 69.0165 40.2357C68.7727 40.3329 68.5608 40.4733 68.3832 40.6629C68.2055 40.8501 68.0683 41.0793 67.9679 41.3517C67.8687 41.6217 67.8197 41.9325 67.8197 42.2793C67.8197 42.6261 67.8687 42.9309 67.9679 43.2021C68.0683 43.4721 68.2068 43.7013 68.3868 43.8873C68.5669 44.0733 68.7788 44.2137 69.0226 44.3097C69.2664 44.4069 69.5347 44.4573 69.825 44.4573C70.1153 44.4573 70.3811 44.4081 70.6237 44.3097C70.865 44.2137 71.0757 44.0733 71.2521 43.8873C71.4297 43.7013 71.5682 43.4721 71.6662 43.2021C71.7666 42.9309 71.8156 42.6237 71.8156 42.2793H71.8168Z" fill="white"/>
<path d="M57.9939 20.2822C57.9939 16.2346 61.3345 13.7698 65.5387 13.7698C68.1382 13.7698 70.1092 14.1526 72.2137 15.3262L72.9549 7.87418C70.729 6.70178 68.0132 6.14258 64.3027 6.14258C59.339 6.14258 54.6534 8.14778 51.7685 11.7262C53.2544 14.083 54.1205 16.9018 54.1205 19.9258C54.1205 22.9498 53.1429 25.873 51.4561 28.3618C54.3128 32.179 59.1748 34.3618 64.3652 34.3618C67.5808 34.3618 70.364 33.7738 72.1574 32.8954L72.8997 25.2094C70.549 26.3818 68.4469 26.8522 65.9736 26.8522C61.6432 26.8522 57.9952 24.3298 57.9952 20.2822H57.9939Z" fill="white"/>
<path d="M23.6033 10.8096C22.7201 9.82565 21.6984 8.98565 20.5751 8.32565C20.5004 8.28005 20.422 8.23805 20.3473 8.19485C20.2946 8.16605 20.2407 8.13365 20.1892 8.10725C18.1239 6.98405 15.4938 6.37085 12.4031 6.31805C8.84206 6.25805 4.88531 6.95405 2.70236 8.03165L3.28546 14.6088C5.14746 13.6428 8.46966 12.8796 11.7772 12.9348C15.0222 12.9912 16.2741 14.1264 16.2435 15.7668L16.2276 16.704L10.4934 17.136C4.82406 17.5656 0.633335 20.7216 0.54636 25.5864C0.449585 31.038 5.04946 34.2192 10.9001 34.3728C16.736 34.5264 21.3101 32.7312 23.6033 29.9448V10.8096ZM16.3415 24.6204C16.3023 26.8488 13.9822 28.5096 11.6926 28.47C9.91148 28.4424 8.66076 27.2484 8.68526 25.842C8.71343 24.1992 9.82328 22.6344 12.4987 22.4448L16.3856 22.1604L16.3415 24.6216V24.6204Z" fill="white"/>
<path d="M52.5635 19.938C52.5635 12.5076 46.8232 6.4848 39.7414 6.4848C37.3784 6.4848 35.3523 6.9372 33.6532 7.74L33.4437 7.8552V0H25.1456V30.2544C25.9063 30.624 31.6785 35.5224 40.9628 33.5748C41.7504 33.4464 42.5197 33.2388 43.2682 32.9664C43.3246 32.9484 43.3797 32.9304 43.4373 32.9136V32.9076C48.5774 30.954 52.5635 25.7772 52.5635 19.938ZM42.4315 24.972C41.2114 26.3136 39.4977 26.982 37.289 26.982C36.282 26.982 35.498 26.9376 34.937 26.8476C34.3747 26.7564 33.8614 26.6208 33.3972 26.4396V18.5616C33.3972 16.9692 33.8418 15.6924 34.7336 14.7324C35.6242 13.7724 36.9987 13.2924 38.8582 13.2924C41.2139 13.2924 42.5553 14.7324 42.9828 15.3288C43.4079 15.9264 43.7276 16.6056 43.9407 17.3664C44.1539 18.1284 44.2605 18.906 44.2605 19.7028C44.2605 21.876 43.6504 23.6328 42.4303 24.9708L42.4315 24.972Z" fill="white"/>
</svg>
