<svg width="487" height="128" viewBox="0 0 487 128" fill="none" xmlns="http://www.w3.org/2000/svg">
<g clip-path="url(#clip0_468_925)">
<path d="M10 106.06V119.2H37.72V127.91H10L0 127.92V105.57C0 99.9999 1.94 97.1299 8.16 97.0499H37.72V106.06H10ZM0 75.1999H37.72V83.9099H10V88.3999C10 91.1599 7.76 93.3999 5 93.3999C2.24 93.3999 0 91.1699 0 88.3999V75.1899V75.1999Z" fill="white"/>
<path d="M49.0498 75.2002L68.3598 101.56L49.0498 127.92H62.2098L74.9398 110.25L87.6798 127.92H100.84L79.1498 98.3202L79.1198 98.2802L62.2098 75.2002H49.0498Z" fill="white"/>
<path d="M87.6297 75.2002H100.79L88.5997 91.8302C86.4597 94.7902 82.6797 94.7502 80.5797 93.1702C78.3897 91.5202 77.9897 88.2102 80.2597 85.1402L87.6297 75.2002Z" fill="#9A742F"/>
<path d="M153.03 93.3402C153.03 82.7002 144.82 75.2002 130.67 75.2002H112.17V92.1502C112.17 94.9102 114.41 97.1502 117.17 97.1502C119.93 97.1502 122.17 94.9102 122.17 92.1502V84.2002H130.74C139.03 84.2002 143.1 87.3402 143.1 93.3402C143.1 99.3402 139.03 102.56 130.74 102.56H120.33C114.11 102.64 112.17 105.51 112.17 111.08V127.92H122.17V111.57H130.67C144.81 111.57 153.03 103.99 153.03 93.3502" fill="white"/>
<path d="M174.36 106.06V119.2H202.08V127.91H174.36H164.36V105.56C164.36 99.9899 166.3 97.1199 172.52 97.0399H202.08V106.05H174.36V106.06ZM164.36 75.1999H202.08V83.9099H174.36V88.3999C174.36 91.1599 172.12 93.3999 169.36 93.3999C166.6 93.3999 164.36 91.1599 164.36 88.3999V75.1899V75.1999Z" fill="white"/>
<path d="M257.55 127.92L244.19 107.99C250.55 105.13 254.12 99.7702 254.12 92.9202C254.12 82.2102 245.48 75.2002 231.83 75.2002H213.4V92.1602C213.4 94.9202 215.64 97.1602 218.4 97.1602C221.16 97.1602 223.4 94.9202 223.4 92.1602V89.6302V84.2002H231.83C240.05 84.2002 244.12 87.2702 244.12 92.9102C244.12 98.5502 240.05 101.7 231.83 101.7H221.56C215.34 101.78 213.4 104.65 213.4 110.22V127.92H223.4V110.42H231.83C232.55 110.42 233.54 110.35 234.76 110.28L246.19 127.92H257.55Z" fill="white"/>
<path d="M278.95 75.2002H268.88V127.92H278.95V75.2002Z" fill="white"/>
<path d="M300.28 106.06V119.2H328V127.91H300.28H290.28V105.56C290.28 99.9899 292.22 97.1199 298.44 97.0399H328V106.05H300.28V106.06ZM290.28 75.1999H328V83.9099H300.28V88.3999C300.28 91.1599 298.04 93.3999 295.28 93.3999C292.52 93.3999 290.28 91.1599 290.28 88.3999V75.1899V75.1999Z" fill="white"/>
<path d="M344.82 75.2002H339.33V127.92H349.26V91.8402L373.53 123.86C375.47 126.81 377.39 127.89 380.73 127.92H386.05V75.2002H376.12V111.28L351.2 78.3502C349.83 76.4802 347.85 75.2702 344.81 75.2002" fill="white"/>
<path d="M437.08 75.2002H423.73C409.24 75.2002 397.37 87.0602 397.37 101.56C397.37 116.06 409.23 127.92 423.73 127.92H437.08V118.84H424.62C415.12 118.84 407.34 111.07 407.34 101.56C407.34 92.0602 415.11 84.2802 424.62 84.2802H437.08V75.2002Z" fill="white"/>
<path d="M458.41 106.06V119.2H486.13V127.91H458.41H448.41V105.56C448.41 99.9899 450.35 97.1199 456.57 97.0399H486.13V106.05H458.41V106.06ZM448.41 75.1999H486.13V83.9099H458.41V88.3999C458.41 91.1599 456.17 93.3999 453.41 93.3999C450.65 93.3999 448.41 91.1599 448.41 88.3999V75.1899V75.1999Z" fill="white"/>
<path d="M222.723 46.99V16.97C221.353 15.41 219.763 14.12 218.033 13.08C217.903 13.02 217.803 12.95 217.673 12.89C217.573 12.86 217.513 12.79 217.413 12.76C214.223 11.01 210.153 10.04 205.363 9.94C199.863 9.84 193.703 10.94 190.323 12.63L191.233 22.93C194.133 21.41 199.273 20.21 204.383 20.31C209.393 20.41 211.353 22.19 211.323 24.75L211.293 26.21L202.403 26.89C193.653 27.56 187.133 32.52 187.003 40.16C186.843 48.71 193.973 53.7 203.053 53.96C212.073 54.19 219.173 51.37 222.723 47M211.553 34.78L211.493 38.63C211.433 42.13 207.813 44.72 204.263 44.65C201.493 44.62 199.573 42.74 199.603 40.54C199.633 37.95 201.363 35.52 205.493 35.2L211.553 34.78Z" fill="#E5E5E5"/>
<path d="M267.593 31.29C267.593 19.63 258.703 10.17 247.733 10.17C244.083 10.17 240.933 10.88 238.293 12.15L237.973 12.34V0H225.113V47.48C226.283 48.06 235.243 55.74 249.633 52.69C250.833 52.5 252.043 52.17 253.213 51.75C253.313 51.72 253.373 51.68 253.473 51.65C261.413 48.57 267.603 40.44 267.603 31.28M254.733 30.93C254.733 34.33 253.783 37.08 251.903 39.19C250.013 41.3 247.343 42.33 243.923 42.33C242.363 42.33 241.153 42.27 240.273 42.1C239.393 41.97 238.613 41.74 237.893 41.45V29.11C237.893 26.62 238.573 24.61 239.973 23.09C241.343 21.57 243.493 20.82 246.353 20.82C250.003 20.82 252.083 23.09 252.733 24.03C253.383 24.97 253.873 26.04 254.233 27.24C254.553 28.44 254.723 29.67 254.723 30.93" fill="#E5E5E5"/>
<path d="M299.173 12.37C295.723 10.52 291.523 9.65 285.763 9.65C278.083 9.65 270.823 12.79 266.363 18.39C268.673 22.08 270.013 26.52 270.013 31.25C270.013 35.98 268.483 40.58 265.883 44.5C270.313 50.49 277.833 53.93 285.873 53.93C290.853 53.93 295.153 53.02 297.953 51.63L299.093 39.58C295.443 41.43 292.193 42.17 288.353 42.17C281.643 42.17 275.983 38.22 275.983 31.87C275.983 25.52 281.163 21.64 287.673 21.64C291.713 21.64 294.733 22.26 298.023 24.07L299.193 12.38L299.173 12.37Z" fill="#E5E5E5"/>
</g>
<defs>
<clipPath id="clip0_468_925">
<rect width="486.13" height="127.92" fill="white"/>
</clipPath>
</defs>
</svg>
