<svg width="430" height="88" viewBox="0 0 430 88" fill="none" xmlns="http://www.w3.org/2000/svg">
  <path
    d="M137.992 8.244C137.992 6.636 138.412 5.22 139.252 3.996C140.092 2.748 141.244 1.776 142.708 1.08C144.196 0.36 145.888 0 147.784 0C149.704 0 151.36 0.336 152.752 1.008C154.144 1.68 155.212 2.628 155.956 3.852C156.724 5.076 157.108 6.528 157.108 8.208H151.312C151.312 7.272 150.988 6.54 150.34 6.012C149.692 5.46 148.816 5.184 147.712 5.184C146.536 5.184 145.588 5.436 144.868 5.94C144.172 6.444 143.824 7.14 143.824 8.028C143.824 8.844 144.04 9.468 144.472 9.9C144.904 10.332 145.588 10.644 146.524 10.836L150.52 11.664C152.896 12.144 154.66 12.984 155.812 14.184C156.964 15.36 157.54 17.004 157.54 19.116C157.54 20.82 157.12 22.32 156.28 23.616C155.44 24.888 154.252 25.872 152.716 26.568C151.204 27.264 149.428 27.612 147.388 27.612C145.42 27.612 143.692 27.276 142.204 26.604C140.74 25.932 139.6 24.984 138.784 23.76C137.992 22.512 137.596 21.06 137.596 19.404H143.392C143.392 20.364 143.74 21.108 144.436 21.636C145.132 22.164 146.128 22.428 147.424 22.428C148.744 22.428 149.788 22.188 150.556 21.708C151.324 21.204 151.708 20.532 151.708 19.692C151.708 18.948 151.516 18.372 151.132 17.964C150.772 17.556 150.148 17.268 149.26 17.1L145.192 16.272C142.816 15.792 141.016 14.88 139.792 13.536C138.592 12.192 137.992 10.428 137.992 8.244Z"
    fill="#F3F9F8" />
  <path
    d="M178.326 27.144H161.406V0.504H178.326V5.904H165.618L167.238 4.392V11.124H177.066V16.236H167.238V23.256L165.618 21.744H178.326V27.144Z"
    fill="#F3F9F8" />
  <path
    d="M181.045 19.512V17.64H186.661V19.512C186.661 20.208 186.889 20.832 187.345 21.384C187.801 21.936 188.581 22.212 189.685 22.212C190.765 22.212 191.533 21.948 191.989 21.42C192.445 20.892 192.673 20.184 192.673 19.296V0.504H198.505V19.656C198.505 21.168 198.145 22.524 197.425 23.724C196.729 24.924 195.721 25.872 194.401 26.568C193.105 27.264 191.557 27.612 189.757 27.612C187.813 27.612 186.193 27.264 184.897 26.568C183.601 25.848 182.629 24.876 181.981 23.652C181.357 22.428 181.045 21.048 181.045 19.512Z"
    fill="#F3F9F8" />
  <path
    d="M206.807 27.144H200.723L210.227 0.504H215.915L225.383 27.144H219.191L217.319 21.528H208.715L206.807 27.144ZM212.315 10.944L210.407 16.632H215.663L213.755 10.944C213.611 10.488 213.467 10.02 213.323 9.54C213.179 9.06 213.083 8.664 213.035 8.352C212.987 8.664 212.891 9.06 212.747 9.54C212.627 9.996 212.483 10.464 212.315 10.944Z"
    fill="#F3F9F8" />
  <path
    d="M237.831 17.136V0.504H243.663V16.74C243.663 18.42 244.107 19.704 244.995 20.592C245.883 21.48 247.143 21.924 248.775 21.924C250.431 21.924 251.703 21.468 252.591 20.556C253.503 19.644 253.959 18.372 253.959 16.74V0.504H259.791V17.136C259.791 19.248 259.335 21.084 258.423 22.644C257.535 24.204 256.263 25.416 254.607 26.28C252.951 27.144 251.007 27.576 248.775 27.576C246.567 27.576 244.635 27.156 242.979 26.316C241.347 25.452 240.075 24.24 239.163 22.68C238.275 21.096 237.831 19.248 237.831 17.136Z"
    fill="#F3F9F8" />
  <path
    d="M270.804 27.144H265.152V0.504H270.804L278.724 20.376L286.68 0.504H292.404V27.144H286.752V21.564C286.752 20.124 286.752 18.936 286.752 18C286.752 17.064 286.764 16.284 286.788 15.66C286.812 15.036 286.836 14.496 286.86 14.04C286.908 13.56 286.968 13.068 287.04 12.564L281.388 27.144H276.06L270.444 12.564C270.612 13.548 270.708 14.616 270.732 15.768C270.78 16.92 270.804 18.228 270.804 19.692V27.144Z"
    fill="#F3F9F8" />
  <path
    d="M9.86413 40.4034V87.8991H0V40.4034H9.86413ZM28.679 49.5368H0.913345V40.4034H28.679V49.5368ZM25.6954 67.8646H0.669786V58.9747H25.6954V67.8646Z"
    fill="#F3F9F8" />
  <path
    d="M45.3038 87.8991H35.4397V40.4034H52.8541C58.3342 40.4034 62.5559 41.6821 65.5192 44.2394C68.5231 46.7562 70.025 50.3487 70.025 55.0169C70.025 57.9396 69.3958 60.4361 68.1374 62.5063C66.9196 64.5766 65.0524 66.2612 62.5356 67.5602L71.338 87.8991H60.5605L52.915 69.6913H45.3038V87.8991ZM45.3038 49.1715V61.045H52.7932C54.9447 61.045 56.609 60.5173 57.7862 59.4618C59.004 58.4064 59.6129 56.9248 59.6129 55.0169C59.6129 53.109 59.0243 51.668 57.8471 50.6937C56.7105 49.6789 55.0462 49.1715 52.8541 49.1715H45.3038Z"
    fill="#F3F9F8" />
  <path
    d="M82.2327 87.8991H71.9424L89.2952 40.4034H98.9157L116.469 87.8991H105.996L101.29 75.9629H86.7378L82.2327 87.8991ZM92.8268 58.0614L89.5996 67.682H98.4895L95.2624 58.0614C95.0188 57.2901 94.7752 56.4986 94.5317 55.6867C94.2881 54.8748 94.1258 54.205 94.0446 53.6773C93.9634 54.205 93.801 54.8748 93.5574 55.6867C93.3545 56.458 93.1109 57.2495 92.8268 58.0614Z"
    fill="#F3F9F8" />
  <path
    d="M129.916 87.8991H120.174V40.4034H129.916L151.958 73.6491H148.914V40.4034H158.656V87.8991H149.531L126.872 52.2769H129.916V87.8991Z"
    fill="#F3F9F8" />
  <path
    d="M209.69 62.8717C209.69 67.4587 208.756 71.518 206.889 75.0496C205.022 78.5406 202.424 81.2806 199.095 83.2697C195.766 85.2182 191.91 86.1924 187.526 86.1924C183.182 86.1924 179.346 85.2182 176.018 83.2697C172.73 81.2806 170.152 78.5406 168.285 75.0496C166.458 71.5586 165.545 67.5196 165.545 62.9326C165.545 58.3455 166.478 54.3065 168.346 50.8155C170.213 47.2839 172.791 44.5439 176.079 42.5954C179.407 40.6063 183.243 39.6118 187.587 39.6118C191.971 39.6118 195.807 40.6063 199.095 42.5954C202.424 44.5439 205.022 47.2636 206.889 50.7546C208.756 54.2456 209.69 58.2846 209.69 62.8717ZM199.278 62.8717C199.278 59.9896 198.811 57.5337 197.877 55.504C196.943 53.4338 195.604 51.8506 193.858 50.7546C192.154 49.6586 190.083 49.1106 187.648 49.1106C185.212 49.1106 183.122 49.6586 181.376 50.7546C179.631 51.8506 178.291 53.4338 177.357 55.504C176.424 57.5337 175.957 59.9896 175.957 62.8717C175.957 65.7538 176.424 68.23 177.357 70.3002C178.291 72.3705 179.631 73.9536 181.376 75.0496C183.122 76.1456 185.212 76.6936 187.648 76.6936C190.083 76.6936 192.154 76.1456 193.858 75.0496C195.604 73.913 196.943 72.3096 197.877 70.2393C198.811 68.1691 199.278 65.7132 199.278 62.8717ZM201.81 87.8117L185.699 69.3869L191.91 63.9068L208.274 82.5845L201.81 87.8117Z"
    fill="#F3F9F8" />
  <path
    d="M216.258 70.1053V40.4034H226.122V69.4355C226.122 72.277 226.873 74.4487 228.375 75.9507C229.877 77.4526 232.008 78.2036 234.769 78.2036C237.57 78.2036 239.721 77.4323 241.223 75.8898C242.766 74.3473 243.537 72.1958 243.537 69.4355V40.4034H253.401V70.1053C253.401 73.6775 252.63 76.7829 251.087 79.4214C249.585 82.06 247.434 84.1099 244.633 85.5713C241.832 87.0326 238.544 87.7633 234.769 87.7633C231.034 87.7633 227.766 87.0529 224.965 85.6322C222.205 84.1708 220.054 82.1208 218.511 79.4823C217.009 76.8032 216.258 73.6775 216.258 70.1053Z"
    fill="#F3F9F8" />
  <path
    d="M291.086 87.8991H262.468V40.4034H291.086V49.5368H269.592L272.332 46.9795V60.7892H288.955V69.4355H272.332V81.323L269.592 78.7656H291.086V87.8991Z"
    fill="#F3F9F8" />
  <path
    d="M303.708 87.8991H293.417L311.091 40.4034H320.711L338.117 87.8991H327.644L323.086 75.9629H308.533L303.708 87.8991ZM314.622 58.0614L311.395 67.682H320.285L317.058 58.0614C316.814 57.2901 316.571 56.4986 316.327 55.6867C316.083 54.8748 315.921 54.205 315.84 53.6773C315.759 54.205 315.596 54.8748 315.353 55.6867C315.15 56.458 314.906 57.2495 314.622 58.0614Z"
    fill="#F3F9F8" />
  <path
    d="M359.627 87.8991H341.969V40.4034H359.018C363.443 40.4034 367.32 41.3573 370.648 43.2652C374.017 45.1731 376.656 47.8319 378.564 51.2417C380.472 54.6516 381.426 61.0264 381.426 65.4917C381.426 69.8757 380.492 73.7524 378.625 77.1216C376.798 80.4908 374.241 83.1294 370.953 85.0373C367.705 86.9452 363.93 87.8991 359.627 87.8991ZM351.833 44.9092V83.515L347.145 78.7656H358.653C361.251 78.7656 363.463 78.2379 365.29 77.1825C367.157 76.1271 368.578 74.6048 369.552 72.6158C370.526 70.6267 371.014 68.252 371.014 65.4917C371.014 62.6502 370.486 57.7975 369.43 55.8085C368.416 53.7788 366.934 52.2363 364.986 51.1809C363.078 50.0848 360.764 49.5368 358.044 49.5368H347.145L351.833 44.9092Z"
    fill="#F3F9F8" />
  <path
    d="M430 64.5783C430 69.1654 429.066 73.2247 427.199 76.7563C425.332 80.2473 422.734 82.9873 419.405 84.9764C416.077 86.9249 412.22 87.8991 407.836 87.8991C403.493 87.8991 399.657 86.9249 396.328 84.9764C393.04 82.9873 390.462 80.2473 388.595 76.7563C386.768 73.2653 385.855 69.2263 385.855 64.6392C385.855 60.0522 386.728 54.3065 388.595 50.8155C390.462 47.2839 393.04 44.5439 396.328 42.5954C399.657 40.6063 403.493 39.6118 407.836 39.6118C412.22 39.6118 416.056 40.6063 419.344 42.5954C422.673 44.5439 425.271 47.2636 427.138 50.7546C429.005 54.2456 430 59.9913 430 64.5783ZM419.588 64.5783C419.588 61.6962 419.06 57.5337 418.126 55.504C417.193 53.4338 415.853 51.8506 414.108 50.7546C412.403 49.6586 410.333 49.1106 407.897 49.1106C405.461 49.1106 403.371 49.6586 401.625 50.7546C399.88 51.8506 398.54 53.4338 397.607 55.504C396.673 57.5337 396.267 61.6962 396.267 64.5783C396.267 67.4605 396.734 69.9366 397.668 72.0069C398.601 74.0771 399.941 75.6603 401.686 76.7563C403.432 77.8523 405.522 78.4003 407.958 78.4003C410.394 78.4003 412.464 77.8523 414.169 76.7563C415.914 75.6197 417.254 74.0162 418.187 71.946C419.121 69.8757 419.588 67.4199 419.588 64.5783Z"
    fill="#F3F9F8" />
</svg>