<svg width="1280" height="127" viewBox="0 0 1280 127" fill="none" xmlns="http://www.w3.org/2000/svg">
  <path
    d="M0.600496 14.0012C0.600496 11.5629 1.23739 9.41563 2.51117 7.55955C3.78495 5.66708 5.53184 4.19313 7.75186 3.13772C10.0083 2.04591 12.574 1.5 15.4491 1.5C18.3606 1.5 20.8718 2.00951 22.9826 3.02854C25.0935 4.04756 26.713 5.48511 27.8412 7.34119C29.0058 9.19727 29.5881 11.3991 29.5881 13.9466H20.799C20.799 12.5273 20.3077 11.4173 19.3251 10.6166C18.3424 9.77957 17.0141 9.36104 15.34 9.36104C13.5567 9.36104 12.1191 9.74317 11.0273 10.5074C9.97188 11.2717 9.44417 12.3271 9.44417 13.6737C9.44417 14.9111 9.77171 15.8573 10.4268 16.5124C11.0819 17.1675 12.1191 17.6406 13.5385 17.9318L19.598 19.1873C23.201 19.9152 25.8759 21.189 27.6228 23.0087C29.3697 24.792 30.2432 27.2849 30.2432 30.4876C30.2432 33.0715 29.6063 35.3462 28.3325 37.3114C27.0587 39.2403 25.2572 40.7324 22.928 41.7878C20.6352 42.8433 17.9421 43.371 14.8486 43.371C11.8644 43.371 9.244 42.8615 6.98759 41.8424C4.76758 40.8234 3.03888 39.3859 1.80149 37.5298C0.600496 35.6373 0 33.4355 0 30.9243H8.78908C8.78908 32.3801 9.31679 33.5083 10.3722 34.3089C11.4276 35.1096 12.938 35.5099 14.9032 35.5099C16.9049 35.5099 18.488 35.146 19.6526 34.4181C20.8172 33.6538 21.3995 32.6348 21.3995 31.361C21.3995 30.2328 21.1084 29.3594 20.5261 28.7407C19.9801 28.122 19.0339 27.6853 17.6873 27.4305L11.5186 26.1749C7.91563 25.4471 5.1861 24.0641 3.33002 22.0261C1.51034 19.988 0.600496 17.3131 0.600496 14.0012Z"
    fill="#F3F9F8" />
  <path
    d="M61.7624 42.6613H36.1048V2.26427H61.7624V10.4529H42.4919L44.9485 8.16005V18.3685H59.8517V26.1203H44.9485V36.7655L42.4919 34.4727H61.7624V42.6613Z"
    fill="#F3F9F8" />
  <path
    d="M65.8861 31.0881V28.2494H74.4023V31.0881C74.4023 32.1435 74.748 33.0897 75.4395 33.9268C76.131 34.7639 77.3137 35.1824 78.9879 35.1824C80.6256 35.1824 81.7902 34.782 82.4817 33.9814C83.1731 33.1807 83.5189 32.1071 83.5189 30.7605V2.26427H92.3626V31.3064C92.3626 33.5993 91.8166 35.6555 90.7248 37.4752C89.6694 39.2949 88.1409 40.7324 86.1392 41.7878C84.174 42.8433 81.8266 43.371 79.097 43.371C76.1491 43.371 73.6926 42.8433 71.7273 41.7878C69.7621 40.696 68.2881 39.2221 67.3055 37.366C66.3592 35.5099 65.8861 33.4173 65.8861 31.0881Z"
    fill="#F3F9F8" />
  <path
    d="M104.952 42.6613H95.7263L110.138 2.26427H118.763L133.121 42.6613H123.731L120.893 34.1452H107.845L104.952 42.6613ZM113.304 18.0955L110.411 26.7208H118.381L115.488 18.0955C115.27 17.4041 115.051 16.6944 114.833 15.9665C114.615 15.2386 114.469 14.6381 114.396 14.165C114.323 14.6381 114.178 15.2386 113.96 15.9665C113.778 16.658 113.559 17.3677 113.304 18.0955Z"
    fill="#F3F9F8" />
  <path
    d="M4.69479 101.094V62.2115H18.3288V100.168C18.3288 104.095 19.3668 107.097 21.4427 109.173C23.5187 111.249 26.4643 112.287 30.2796 112.287C34.151 112.287 37.1246 111.221 39.2006 109.089C41.3326 106.957 42.3987 103.983 42.3987 100.168V62.2115H56.0327V101.094C56.0327 106.031 54.9666 110.323 52.8346 113.97C50.7586 117.617 47.785 120.451 43.9136 122.47C40.0422 124.49 35.4975 125.5 30.2796 125.5C25.1177 125.5 20.6011 124.518 16.7297 122.555C12.9145 120.535 9.94079 117.701 7.80873 114.054C5.73277 110.351 4.69479 106.031 4.69479 101.094Z"
    fill="#F3F9F8" />
  <path
    d="M81.7779 124.49H68.5647V62.2115H81.7779L100.293 108.668L118.893 62.2115H132.274V124.49H119.061V111.445C119.061 108.079 119.061 105.302 119.061 103.113C119.061 100.925 119.089 99.1018 119.145 97.6431C119.201 96.1843 119.257 94.9219 119.313 93.8558C119.426 92.7337 119.566 91.5835 119.734 90.4053L106.521 124.49H94.0653L80.9363 90.4053C81.329 92.7056 81.5535 95.2024 81.6096 97.8955C81.7218 100.589 81.7779 103.647 81.7779 107.069V124.49Z"
    fill="#F3F9F8" />
  <path
    d="M175.004 2.08189V127H149.06V2.08189H175.004ZM224.489 26.1037H151.462V2.08189H224.489V26.1037ZM216.642 74.3075H150.822V50.9263H216.642V74.3075Z"
    fill="#F3F9F8" />
  <path
    d="M268.214 127H242.27V2.08189H288.072C302.485 2.08189 313.588 5.44495 321.382 12.1711C329.282 18.7904 333.233 28.239 333.233 40.5168C333.233 48.2038 331.578 54.7697 328.268 60.2147C325.065 65.6596 320.154 70.0903 313.535 73.5068L336.686 127H308.34L288.232 79.1119H268.214V127ZM268.214 25.1428V56.3712H287.911C293.57 56.3712 297.947 54.9833 301.043 52.2074C304.246 49.4316 305.848 45.5347 305.848 40.5168C305.848 35.4989 304.3 31.7088 301.203 29.1465C298.214 26.4774 293.837 25.1428 288.072 25.1428H268.214Z"
    fill="#F3F9F8" />
  <path
    d="M365.34 127H338.275L383.915 2.08189H409.218L455.385 127H427.84L415.464 95.6068H377.189L365.34 127ZM393.203 48.5241L384.716 73.8271H408.097L399.609 48.5241C398.969 46.4956 398.328 44.4137 397.687 42.2784C397.047 40.1431 396.62 38.3815 396.406 36.9936C396.193 38.3815 395.766 40.1431 395.125 42.2784C394.591 44.3069 393.951 46.3888 393.203 48.5241Z"
    fill="#F3F9F8" />
  <path
    d="M490.752 127H465.129V2.08189H490.752L548.725 89.5213H540.717V2.08189H566.341V127H542.34L482.745 33.3103H490.752V127Z"
    fill="#F3F9F8" />
  <path
    d="M700.564 61.1756C700.564 73.2399 698.108 83.9162 693.197 93.2047C688.286 102.386 681.453 109.593 672.698 114.824C663.944 119.949 653.801 122.511 642.271 122.511C630.847 122.511 620.758 119.949 612.003 114.824C603.355 109.593 596.576 102.386 591.665 93.2047C586.86 84.023 584.458 73.4 584.458 61.3357C584.458 49.2714 586.914 38.6484 591.825 29.4668C596.736 20.1783 603.516 12.9718 612.163 7.84712C620.918 2.61571 631.007 0 642.431 0C653.961 0 664.051 2.61571 672.698 7.84712C681.453 12.9718 688.286 20.1249 693.197 29.3066C698.108 38.4883 700.564 49.1113 700.564 61.1756ZM673.179 61.1756C673.179 53.5953 671.951 47.1361 669.495 41.798C667.04 36.353 663.517 32.1892 658.926 29.3066C654.442 26.424 648.997 24.9827 642.591 24.9827C636.185 24.9827 630.687 26.424 626.096 29.3066C621.505 32.1892 617.982 36.353 615.526 41.798C613.071 47.1361 611.843 53.5953 611.843 61.1756C611.843 68.7558 613.071 75.2684 615.526 80.7133C617.982 86.1583 621.505 90.322 626.096 93.2047C630.687 96.0873 636.185 97.5286 642.591 97.5286C648.997 97.5286 654.442 96.0873 658.926 93.2047C663.517 90.2153 667.04 85.9981 669.495 80.5532C671.951 75.1082 673.179 68.649 673.179 61.1756ZM679.84 126.77L637.466 78.3111L653.801 63.898L696.84 113.022L679.84 126.77Z"
    fill="#F3F9F8" />
  <path
    d="M717.839 80.2006V2.08189H743.783V78.439C743.783 85.9125 745.758 91.6244 749.708 95.5746C753.659 99.5249 759.264 101.5 766.524 101.5C773.89 101.5 779.549 99.4715 783.499 95.4145C787.556 91.3574 789.585 85.699 789.585 78.439V2.08189H815.528V80.2006C815.528 89.5958 813.5 97.7633 809.443 104.703C805.492 111.643 799.834 117.034 792.467 120.878C785.101 124.721 776.453 126.643 766.524 126.643C756.701 126.643 748.107 124.774 740.74 121.038C733.48 117.194 727.822 111.803 723.765 104.863C719.815 97.8167 717.839 89.5958 717.839 80.2006Z"
    fill="#F3F9F8" />
  <path
    d="M914.643 127H839.375V2.08189H914.643V26.1037H858.112L865.318 19.3776V55.6984H909.038V78.439H865.318V109.704L858.112 102.978H914.643V127Z"
    fill="#F3F9F8" />
  <path
    d="M947.84 127H920.775L967.257 2.08189H992.56L1038.34 127H1010.79L998.806 95.6068H960.531L947.84 127ZM976.546 48.5241L968.058 73.8271H991.439L982.951 48.5241C982.311 46.4956 981.67 44.4137 981.03 42.2784C980.389 40.1431 979.962 38.3815 979.749 36.9936C979.535 38.3815 979.108 40.1431 978.467 42.2784C977.934 44.3069 977.293 46.3888 976.546 48.5241Z"
    fill="#F3F9F8" />
  <path
    d="M1094.91 127H1048.47V2.08189H1093.31C1104.95 2.08189 1115.14 4.59084 1123.9 9.60873C1132.76 14.6266 1139.7 21.6196 1144.72 30.5878C1149.74 39.5559 1152.25 56.3225 1152.25 68.0665C1152.25 79.5969 1149.79 89.7929 1144.88 98.6543C1140.07 107.516 1133.35 114.455 1124.7 119.473C1116.16 124.491 1106.23 127 1094.91 127ZM1074.41 13.9327V115.47L1062.08 102.978H1092.35C1099.18 102.978 1105 101.59 1109.81 98.8144C1114.72 96.0385 1118.45 92.0349 1121.02 86.8035C1123.58 81.5721 1124.86 75.3264 1124.86 68.0665C1124.86 60.593 1123.47 47.8301 1120.7 42.5987C1118.03 37.2605 1114.13 33.2035 1109.01 30.4276C1103.99 27.545 1097.9 26.1037 1090.75 26.1037H1062.08L1074.41 13.9327Z"
    fill="#F3F9F8" />
  <path
    d="M1280 65.6643C1280 77.7286 1277.54 88.4049 1272.63 97.6934C1267.72 106.875 1260.89 114.082 1252.13 119.313C1243.38 124.438 1233.24 127 1221.71 127C1210.28 127 1200.19 124.438 1191.44 119.313C1182.79 114.082 1176.01 106.875 1171.1 97.6934C1166.3 88.5117 1163.89 77.8887 1163.89 65.8244C1163.89 53.7601 1166.19 38.6484 1171.1 29.4668C1176.01 20.1783 1182.79 12.9718 1191.44 7.84712C1200.19 2.61571 1210.28 0 1221.71 0C1233.24 0 1243.33 2.61571 1251.97 7.84712C1260.73 12.9718 1267.56 20.1249 1272.47 29.3066C1277.38 38.4883 1280 53.6 1280 65.6643ZM1252.62 65.6643C1252.62 58.0841 1251.23 47.1361 1248.77 41.798C1246.32 36.353 1242.79 32.1892 1238.2 29.3066C1233.72 26.424 1228.27 24.9827 1221.87 24.9827C1215.46 24.9827 1209.96 26.424 1205.37 29.3066C1200.78 32.1892 1197.26 36.353 1194.8 41.798C1192.35 47.1361 1191.28 58.0841 1191.28 65.6643C1191.28 73.2445 1192.51 79.7571 1194.96 85.202C1197.42 90.647 1200.94 94.8108 1205.53 97.6934C1210.12 100.576 1215.62 102.017 1222.03 102.017C1228.43 102.017 1233.88 100.576 1238.36 97.6934C1242.95 94.704 1246.48 90.4868 1248.93 85.0419C1251.39 79.5969 1252.62 73.1377 1252.62 65.6643Z"
    fill="#F3F9F8" />
</svg>